<?xml version="1.0" encoding="utf-8"?>
<!-- Svg Vector Icons : http://www.onlinewebfonts.com/icon -->
<!DOCTYPE svg PUBLIC "-//W3C//DTD SVG 1.1//EN" "http://www.w3.org/Graphics/SVG/1.1/DTD/svg11.dtd">
<svg version="1.1" xmlns="http://www.w3.org/2000/svg" xmlns:xlink="http://www.w3.org/1999/xlink" x="0px" y="0px" viewBox="0 0 1000 1000" enable-background="new 0 0 1000 1000" xml:space="preserve">
<metadata> Svg Vector Icons : http://www.onlinewebfonts.com/icon </metadata>
<g><g transform="translate(0.000000,511.000000) scale(0.100000,-0.100000)"><path d="M1735,2570.3l-105.7-10.3l149.6-291.4c85.1-162.5,185.7-376.5,229.5-477.1l74.8-183.1h-992.9H100V1402v-206.3h1054.8h1054.8l41.3-172.8c77.4-345.6,100.6-631.8,85.1-1039.3c-15.5-353.3-87.7-851.1-134.1-928.4c-10.3-15.5-397.2-25.8-1059.9-25.8H100v-206.3v-206.3h980c539,0,980-10.3,980-20.6c0-43.8-139.3-361.1-286.3-655.1l-149.6-304.3h314.6c1475.2,0,3102.5,340.4,4126.3,861.4c531.3,270.8,1039.3,673.1,1268.8,1005.8l95.4,139.3l118.6-61.9c134.1-72.2,366.2-85.1,505.5-25.8c116.1,49,260.5,180.5,299.2,273.4l31,77.4h758.2H9900v206.3v206.3h-758.2h-758.2l-31,77.4c-38.7,95.4-183.1,224.4-306.9,276c-67,28.4-149.6,36.1-286.3,28.4l-193.4-12.9l-87.7,183.1c-116.1,242.4-487.4,613.8-807.2,809.8c-776.3,477.1-1905.8,784-3257.2,882C3076.1,2585.8,1972.3,2590.9,1735,2570.3z M3470.7,2147.3c1062.5-85.1,1975.5-304.3,2638.3-631.8c856.2-417.8,1232.7-925.8,1070.3-1433.9C6890.4-815.8,5312-1607.6,3310.8-1860.3c-355.9-43.8-995.5-95.4-1008.4-82.5c-5.2,5.2,25.8,95.4,69.6,201.2c116,283.7,247.6,737.6,312.1,1075.4c79.9,430.7,82.5,1178.6,0,1604.1c-61.9,332.7-203.8,804.6-317.2,1054.8c-41.3,90.3-74.8,167.6-74.8,172.8C2292.1,2186,3161.2,2173.1,3470.7,2147.3z M7981.2,220.9c118.7-152.2-56.7-353.3-242.4-275.9c-144.4,61.9-144.4,273.4,0,335.2C7831.7,318.9,7927.1,295.7,7981.2,220.9z"/></g></g>
</svg>