<?xml version="1.0" encoding="utf-8"?>
<!-- Svg Vector Icons : http://www.onlinewebfonts.com/icon -->
<!DOCTYPE svg PUBLIC "-//W3C//DTD SVG 1.1//EN" "http://www.w3.org/Graphics/SVG/1.1/DTD/svg11.dtd">
<svg version="1.1" xmlns="http://www.w3.org/2000/svg" xmlns:xlink="http://www.w3.org/1999/xlink" x="0px" y="0px" viewBox="0 0 1000 1000" enable-background="new 0 0 1000 1000" xml:space="preserve">
<metadata> Svg Vector Icons : http://www.onlinewebfonts.com/icon </metadata>
<g><g transform="translate(0.000000,511.000000) scale(0.100000,-0.100000)"><path d="M2141.7,1324.7V314.1H1120.8H100V110V-94.2h1020.8h1020.8v-1010.6c0-803.9,7.7-1008.1,33.2-997.9c17.9,5.1,839.6,477.2,1827.3,1048.9C4989.8-484.7,5803.9-17.6,5814.1-17.6c10.2,0,30.6-48.5,45.9-107.2c71.4-265.4,278.2-464.5,566.6-548.7c364.9-104.6,778.4,89.3,939.2,444.1L7427-94.2h1237.8H9900V110v204.2H8664.8H7427l-61.2,135.3c-86.8,188.9-171,278.2-354.7,377.7c-145.5,76.6-181.2,84.2-377.7,86.8c-199.1,0-229.7-7.6-377.7-86.8c-89.3-48.5-188.9-122.5-224.6-163.3c-84.2-99.5-188.9-308.8-188.9-375.2c0-28.1-10.2-51-23-51s-829.4,467-1814.5,1036.1C3017,1842.8,2195.3,2315,2177.4,2322.6C2146.8,2332.8,2141.7,2166.9,2141.7,1324.7z M3948.5,839.9C4624.8,449.4,5178.7,120.2,5178.7,110s-553.8-339.4-1230.1-729.9c-678.8-390.5-1270.9-729.9-1314.3-757.9l-84.2-48.5V110v1536.4l84.2-48.5C2677.6,1572.3,3269.7,1230.3,3948.5,839.9z M6794.1,482.6c262.9-109.7,326.7-451.7,122.5-655.9c-165.9-165.9-400.7-165.9-566.5,0C6033.6,140.6,6383.2,656.1,6794.1,482.6z"/></g></g>
</svg>