<?xml version="1.0" encoding="utf-8"?>
<!-- Svg Vector Icons : http://www.onlinewebfonts.com/icon -->
<!DOCTYPE svg PUBLIC "-//W3C//DTD SVG 1.1//EN" "http://www.w3.org/Graphics/SVG/1.1/DTD/svg11.dtd">
<svg version="1.1" xmlns="http://www.w3.org/2000/svg" xmlns:xlink="http://www.w3.org/1999/xlink" x="0px" y="0px" viewBox="0 0 1000 1000" enable-background="new 0 0 1000 1000" xml:space="preserve">
<metadata> Svg Vector Icons : http://www.onlinewebfonts.com/icon </metadata>
<g><g transform="translate(0.000000,511.000000) scale(0.100000,-0.100000)"><path d="M2140.8,2597.7c-62.5-5.2-112.1-18.2-112.1-26.1c0-7.8,59.9-117.3,130.3-242.4c810.6-1417.9,831.4-2796.6,62.5-4321.4c-106.9-208.5-192.9-385.7-192.9-393.6c0-5.2,250.2-2.6,555.2,5.2c1965.2,60,3701.1,497.8,4756.7,1201.6C7859.2-834.9,8234.5-397,8349.2-6.1l31.3,106.8l761.1,7.8l758.4,5.2v208.5v208.5l-758.4,5.2l-758.5,7.8l-49.5,143.3c-67.8,192.9-255.4,463.9-440.5,636c-672.4,620.3-1902.7,1050.4-3518.6,1230.2C4009.6,2592.5,2401.4,2626.4,2140.8,2597.7z M4283.2,2146.8C5907,1969.6,7085.1,1557.8,7671.5,963.5c443.1-450.9,411.8-920.1-91.2-1423.1c-677.7-677.7-2043.4-1198.9-3675-1404.8c-437.9-54.7-1172.9-117.3-1188.5-99.1c-7.8,5.2,28.7,104.3,75.6,216.3c312.8,729.8,453.5,1550.8,388.4,2244.1c-52.1,534.3-182.5,1039.9-388.4,1490.8c-46.9,104.3-86,198.1-86,205.9C2706.4,2214.6,4004.4,2178.1,4283.2,2146.8z"/><path d="M1442.3,2397c-86-46.9-156.4-96.4-153.8-109.5c0-13,67.8-161.6,148.6-328.4c80.8-166.8,148.6-310.2,148.6-318c0-7.8-333.6-15.6-742.8-15.6H100V1417v-208.5h815.8h818.4l41.7-192.9C1908.8,410.9,1895.8-300.6,1742-874l-28.7-106.9H908H100v-208.5v-208.5h742.8H1583l-86-200.7c-46.9-112.1-117.3-265.8-156.4-344c-80.8-159-91.2-140.8,143.4-263.3l146-75.6l145.9,304.9c568.2,1193.7,659.4,2369.2,273.7,3536.9c-83.4,252.8-396.2,925.3-430.1,925.3C1609.1,2485.6,1528.3,2446.5,1442.3,2397z"/></g></g>
</svg>