<?xml version="1.0" encoding="utf-8"?>
<!-- Svg Vector Icons : http://www.onlinewebfonts.com/icon -->
<!DOCTYPE svg PUBLIC "-//W3C//DTD SVG 1.1//EN" "http://www.w3.org/Graphics/SVG/1.1/DTD/svg11.dtd">
<svg version="1.1" xmlns="http://www.w3.org/2000/svg" xmlns:xlink="http://www.w3.org/1999/xlink" x="0px" y="0px" viewBox="0 0 1000 1000" enable-background="new 0 0 1000 1000" xml:space="preserve">
<metadata> Svg Vector Icons : http://www.onlinewebfonts.com/icon </metadata>
<g><g transform="translate(0.000000,511.000000) scale(0.100000,-0.100000)"><path d="M1733.3,2075.1v-487.5H916.7H100v-204.2v-204.2h816.7h816.7V107.4V-964.4H916.7H100v-204.2v-204.2h816.7h816.7v-484.9v-484.9h176.1c311.4,0,1074.4,51,1544,104.6c1115.3,125,2023.8,357.3,2733.3,696.7c456.8,219.5,673.8,367.5,957,650.8c262.9,265.4,387.9,461.9,461.9,729.9l40.8,153.1l1128,7.7L9900,5.4v204.2v204.2H8769.4H7638.9l-58.7,178.6c-268,837.1-1426.6,1521-3065,1812C3915.4,2509,3553,2537,2634.2,2549.8l-900.9,12.8V2075.1z M3660.2,2108.3c1768.6-158.2,3093.1-735,3475.9-1508.3c91.9-183.7,97-211.8,97-428.8c0-209.3-7.6-247.6-81.7-395.6c-393-798.8-1801.8-1403.6-3759.2-1618c-298.6-33.2-1074.4-91.9-1217.3-91.9c-25.5,0-33.2,426.2-33.2,2039.1v2041.7l122.5,10.2C2468.3,2172.1,3231.4,2146.6,3660.2,2108.3z"/></g></g>
</svg>