<?xml version="1.0" encoding="utf-8"?>
<!-- Svg Vector Icons : http://www.onlinewebfonts.com/icon -->
<!DOCTYPE svg PUBLIC "-//W3C//DTD SVG 1.1//EN" "http://www.w3.org/Graphics/SVG/1.1/DTD/svg11.dtd">
<svg version="1.1" xmlns="http://www.w3.org/2000/svg" xmlns:xlink="http://www.w3.org/1999/xlink" x="0px" y="0px" viewBox="0 0 1000 1000" enable-background="new 0 0 1000 1000" xml:space="preserve">
<metadata> Svg Vector Icons : http://www.onlinewebfonts.com/icon </metadata>
<g><g transform="translate(0.000000,511.000000) scale(0.100000,-0.100000)"><path d="M1733.3,2075.1v-487.5H916.7H100v-204.2v-204.2h816.7h816.7V107.4V-964.4H916.7H100v-204.2v-204.2h816.7h816.7v-484.9v-484.9h176.1c311.4,0,1074.4,51,1544,104.6c1115.3,125,2023.8,357.3,2733.3,696.7c418.6,199.1,661,359.9,911.1,597.2c148,140.4,367.5,413.4,390.5,482.4c2.5,2.5,51-17.9,109.7-46c311.4-155.7,676.3-38.3,837.1,268l74,142.9h696.7H9900v204.2v204.2h-727.3c-467,0-727.3,10.2-727.3,25.5c0,45.9-186.3,232.2-285.8,283.3c-168.4,86.8-342,89.3-535.9,10.2c-33.2-12.8-53.6,10.2-94.4,102.1c-339.4,770.7-1475.1,1398.5-3014,1671.6C3915.4,2509,3553,2537,2634.2,2549.8l-900.9,12.8V2075.1z M3660.2,2108.3c1768.6-158.2,3093.1-735,3475.9-1508.3c91.9-183.7,97-211.8,97-428.8c0-209.3-7.6-247.6-81.7-395.6c-393-798.8-1801.8-1403.6-3759.2-1618c-298.6-33.2-1074.4-91.9-1217.3-91.9c-25.5,0-33.2,426.2-33.2,2039.1v2041.7l122.5,10.2C2468.3,2172.1,3231.4,2146.6,3660.2,2108.3z M8042.1,214.6c25.5-25.5,53.6-89.3,63.8-140.4c12.8-79.1,2.5-102.1-63.8-171c-104.6-102.1-211.8-104.6-313.9-2.6c-102.1,102.1-99.5,209.3,2.5,313.9c68.9,66.3,91.9,76.6,171,63.8C7952.8,268.2,8016.6,240.2,8042.1,214.6z"/></g></g>
</svg>