<?xml version="1.0" encoding="utf-8"?>
<!-- Svg Vector Icons : http://www.onlinewebfonts.com/icon -->
<!DOCTYPE svg PUBLIC "-//W3C//DTD SVG 1.1//EN" "http://www.w3.org/Graphics/SVG/1.1/DTD/svg11.dtd">
<svg version="1.1" xmlns="http://www.w3.org/2000/svg" xmlns:xlink="http://www.w3.org/1999/xlink" x="0px" y="0px" viewBox="0 0 1000 1000" enable-background="new 0 0 1000 1000" xml:space="preserve">
<metadata> Svg Vector Icons : http://www.onlinewebfonts.com/icon </metadata>
<g><g transform="translate(0.000000,511.000000) scale(0.100000,-0.100000)"><path d="M1749.8,2599.3l-112.1-18.2l119.9-208.5c122.5-211.1,299.7-576,333.6-682.9l18.2-59.9H1106.1H100v-208.5v-208.5h1081.7h1081.6l13-57.3c78.2-331,96.4-477,109.5-894c10.4-396.2,5.2-518.6-39.1-781.9c-31.3-172-65.2-346.6-80.8-385.7l-28.7-70.4H1168.6H100v-208.5v-208.5h1003.5c552.6,0,1003.5-5.2,1003.5-13c0-33.9-229.4-521.3-344-737.6L1630-2391.9l570.8,15.6c1751.5,52.1,3333.6,404,4383.9,974.8C7280.6-1021,7814.9-486.7,7963.5-20.1l44.3,138.1h946.1H9900v208.5V535h-946.1h-943.5l-49.5,138.1c-75.6,211.1-166.8,351.9-377.9,573.4C6952.2,1906,5695.9,2367.3,4007,2555C3610.8,2599.3,1958.3,2630.6,1749.8,2599.3z M4009.6,2138c1589.9-185,2749.7-604.7,3302.3-1193.7c216.3-232,278.9-372.7,281.5-617.7c0-169.4-10.4-218.9-83.4-367.5c-312.8-636-1352.7-1243.3-2705.4-1584.7c-664.6-166.8-1313.6-260.6-2262.3-328.4l-226.8-18.3l88.6,208.5c297.1,695.9,422.2,1334.5,398.8,2051.2c-18.2,622.9-146,1172.9-396.2,1722.8l-91.2,200.7l669.8-15.6C3355.4,2187.5,3816.7,2161.4,4009.6,2138z"/></g></g>
</svg>